<svg xmlns="http://www.w3.org/2000/svg" width="64" height="72" viewBox="0 0 64 72" shape-rendering="crispEdges"><rect x="4" y="25" width="56" height="44" fill="#17162d"/><rect x="6" y="27" width="52" height="40" fill="#66717c"/><rect x="7" y="33" width="50" height="1" fill="#303948"/><rect x="18" y="26" width="1" height="7" fill="#303948"/><rect x="19" y="27" width="2" height="1" fill="#99a5a6"/><rect x="37" y="26" width="1" height="7" fill="#303948"/><rect x="38" y="27" width="2" height="1" fill="#99a5a6"/><rect x="7" y="43" width="50" height="1" fill="#303948"/><rect x="13" y="36" width="1" height="7" fill="#303948"/><rect x="14" y="37" width="2" height="1" fill="#99a5a6"/><rect x="32" y="36" width="1" height="7" fill="#303948"/><rect x="33" y="37" width="2" height="1" fill="#99a5a6"/><rect x="51" y="36" width="1" height="7" fill="#303948"/><rect x="52" y="37" width="2" height="1" fill="#99a5a6"/><rect x="7" y="53" width="50" height="1" fill="#303948"/><rect x="18" y="46" width="1" height="7" fill="#303948"/><rect x="19" y="47" width="2" height="1" fill="#99a5a6"/><rect x="37" y="46" width="1" height="7" fill="#303948"/><rect x="38" y="47" width="2" height="1" fill="#99a5a6"/><rect x="7" y="63" width="50" height="1" fill="#303948"/><rect x="13" y="56" width="1" height="7" fill="#303948"/><rect x="14" y="57" width="2" height="1" fill="#99a5a6"/><rect x="32" y="56" width="1" height="7" fill="#303948"/><rect x="33" y="57" width="2" height="1" fill="#99a5a6"/><rect x="51" y="56" width="1" height="7" fill="#303948"/><rect x="52" y="57" width="2" height="1" fill="#99a5a6"/><rect x="11" y="6" width="42" height="4" fill="#17162d"/><rect x="9" y="9" width="46" height="4" fill="#2e8747"/><rect x="6" y="13" width="52" height="6" fill="#17162d"/><rect x="8" y="14" width="48" height="3" fill="#58d740"/><rect x="3" y="19" width="58" height="7" fill="#2e8747"/><rect x="2" y="24" width="60" height="4" fill="#17162d"/><rect x="12" y="8" width="40" height="1" fill="#a5f068"/><rect x="8" y="66" width="48" height="4" fill="#303948"/><rect x="10" y="45" width="16" height="23" fill="#17162d"/><rect x="12" y="47" width="12" height="19" fill="#536979"/><rect x="14" y="49" width="8" height="8" fill="#2e8747"/><rect x="21" y="59" width="2" height="2" fill="#dfc873"/><rect x="38" y="34" width="12" height="13" fill="#17162d"/><rect x="40" y="36" width="8" height="9" fill="#17162d"/><rect x="41" y="36" width="6" height="7" fill="#72d9d7"/><rect x="43" y="36" width="2" height="7" fill="#536979"/><rect x="40" y="44" width="8" height="2" fill="#99a5a6"/><rect x="5" y="69" width="54" height="2" fill="#99a5a6"/></svg>
