<svg xmlns="http://www.w3.org/2000/svg" width="64" height="48" viewBox="0 0 64 48" shape-rendering="crispEdges"><rect x="2" y="43" width="60" height="4" fill="#303948"/><rect x="2" y="10" width="12" height="35" fill="#17162d"/><rect x="4" y="12" width="8" height="31" fill="#66717c"/><rect x="5" y="18" width="6" height="1" fill="#303948"/><rect x="5" y="28" width="6" height="1" fill="#303948"/><rect x="5" y="38" width="6" height="1" fill="#303948"/><rect x="1" y="7" width="14" height="5" fill="#17162d"/><rect x="4" y="8" width="8" height="2" fill="#58d740"/><rect x="50" y="10" width="12" height="35" fill="#17162d"/><rect x="52" y="12" width="8" height="31" fill="#66717c"/><rect x="53" y="18" width="6" height="1" fill="#303948"/><rect x="53" y="28" width="6" height="1" fill="#303948"/><rect x="53" y="38" width="6" height="1" fill="#303948"/><rect x="49" y="7" width="14" height="5" fill="#17162d"/><rect x="52" y="8" width="8" height="2" fill="#58d740"/><rect x="11" y="3" width="42" height="11" fill="#17162d"/><rect x="13" y="5" width="38" height="7" fill="#536979"/><rect x="16" y="6" width="32" height="4" fill="#58d740"/><rect x="25" y="8" width="13" height="2" fill="#a5f068"/><rect x="14" y="17" width="36" height="4" fill="#17162d"/><rect x="17" y="19" width="30" height="2" fill="#99a5a6"/><rect x="19" y="21" width="3" height="19" fill="#536979"/><rect x="20" y="23" width="1" height="14" fill="#17162d"/><rect x="29" y="21" width="3" height="19" fill="#536979"/><rect x="30" y="23" width="1" height="14" fill="#17162d"/><rect x="39" y="21" width="3" height="19" fill="#536979"/><rect x="40" y="23" width="1" height="14" fill="#17162d"/></svg>
