<svg xmlns="http://www.w3.org/2000/svg" width="144" height="72" viewBox="0 0 144 72" shape-rendering="crispEdges"><rect x="3" y="49" width="14" height="15" fill="#17162d"/><rect x="5" y="51" width="9" height="10" fill="#a2664a"/><rect x="0" y="55" width="6" height="4" fill="#dfc873"/><rect x="4" y="29" width="21" height="7" fill="#17162d"/><rect x="9" y="30" width="15" height="4" fill="#536979"/><rect x="18" y="21" width="104" height="10" fill="#17162d"/><rect x="22" y="23" width="99" height="7" fill="#99a5a6"/><rect x="10" y="30" width="122" height="34" fill="#17162d"/><rect x="13" y="33" width="117" height="27" fill="#afc6c4"/><rect x="129" y="34" width="9" height="23" fill="#17162d"/><rect x="132" y="37" width="7" height="17" fill="#afc6c4"/><rect x="139" y="42" width="5" height="8" fill="#58d740"/><rect x="18" y="60" width="99" height="7" fill="#17162d"/><rect x="27" y="63" width="78" height="5" fill="#536979"/><rect x="30" y="27" width="79" height="6" fill="#2e8747"/><rect x="34" y="31" width="71" height="4" fill="#58d740"/><rect x="48" y="20" width="52" height="7" fill="#17162d"/><rect x="54" y="14" width="39" height="8" fill="#17162d"/><rect x="59" y="16" width="28" height="6" fill="#72d9d7"/><rect x="62" y="22" width="29" height="7" fill="#536979"/><rect x="71" y="16" width="3" height="7" fill="#303948"/><rect x="35" y="11" width="6" height="13" fill="#17162d"/><rect x="37" y="8" width="3" height="7" fill="#afc6c4"/><rect x="37" y="15" width="1" height="8" fill="#58d740"/><rect x="103" y="11" width="6" height="13" fill="#17162d"/><rect x="105" y="8" width="3" height="7" fill="#afc6c4"/><rect x="105" y="15" width="1" height="8" fill="#58d740"/><rect x="26" y="40" width="8" height="3" fill="#536979"/><rect x="28" y="42" width="4" height="2" fill="#72d9d7"/><rect x="42" y="40" width="8" height="3" fill="#536979"/><rect x="44" y="42" width="4" height="2" fill="#72d9d7"/><rect x="108" y="40" width="8" height="3" fill="#536979"/><rect x="110" y="42" width="4" height="2" fill="#72d9d7"/><rect x="121" y="40" width="8" height="3" fill="#536979"/><rect x="123" y="42" width="4" height="2" fill="#72d9d7"/><rect x="45" y="50" width="59" height="3" fill="#2e8747"/><rect x="55" y="54" width="39" height="3" fill="#58d740"/><rect x="110" y="48" width="12" height="12" fill="#17162d"/><rect x="111" y="49" width="10" height="10" fill="#2e8747"/><rect x="115" y="50" width="2" height="8" fill="#a5f068"/><rect x="112" y="53" width="8" height="2" fill="#a5f068"/><rect x="114" y="52" width="4" height="4" fill="#e2e4c9"/></svg>
